<?xml version="1.0" encoding="UTF-8" standalone="no"?>
<!-- Created with Inkscape (http://www.inkscape.org/) -->

<svg
   xmlns:dc="http://purl.org/dc/elements/1.1/"
   xmlns:cc="http://creativecommons.org/ns#"
   xmlns:rdf="http://www.w3.org/1999/02/22-rdf-syntax-ns#"
   xmlns:svg="http://www.w3.org/2000/svg"
   xmlns="http://www.w3.org/2000/svg"
   xmlns:xlink="http://www.w3.org/1999/xlink"
   xmlns:sodipodi="http://sodipodi.sourceforge.net/DTD/sodipodi-0.dtd"
   xmlns:inkscape="http://www.inkscape.org/namespaces/inkscape"
   width="440"
   height="440"
   id="svg2"
   version="1.1"
   inkscape:version="0.47 r22583"
   sodipodi:docname="icon.svg"
   inkscape:export-filename="/home/raph/0Dream/programming/usbtenki/qtenki/icon256x256.png"
   inkscape:export-xdpi="9.818182"
   inkscape:export-ydpi="9.818182">
  <defs
     id="defs4">
    <linearGradient
       id="linearGradient3594">
      <stop
         style="stop-color:#ff0000;stop-opacity:1;"
         offset="0"
         id="stop3596" />
      <stop
         style="stop-color:#0000ff;stop-opacity:1;"
         offset="1"
         id="stop3598" />
    </linearGradient>
    <inkscape:perspective
       sodipodi:type="inkscape:persp3d"
       inkscape:vp_x="0 : 526.18109 : 1"
       inkscape:vp_y="0 : 1000 : 0"
       inkscape:vp_z="744.09448 : 526.18109 : 1"
       inkscape:persp3d-origin="372.04724 : 350.78739 : 1"
       id="perspective10" />
    <linearGradient
       inkscape:collect="always"
       xlink:href="#linearGradient3594"
       id="linearGradient3600"
       x1="140.40625"
       y1="614.58752"
       x2="140.40625"
       y2="215.31876"
       gradientUnits="userSpaceOnUse"
       gradientTransform="translate(10.938363,-14.285714)" />
    <inkscape:perspective
       id="perspective3610"
       inkscape:persp3d-origin="0.5 : 0.33333333 : 1"
       inkscape:vp_z="1 : 0.5 : 1"
       inkscape:vp_y="0 : 1000 : 0"
       inkscape:vp_x="0 : 0.5 : 1"
       sodipodi:type="inkscape:persp3d" />
    <linearGradient
       inkscape:collect="always"
       xlink:href="#linearGradient3594-7"
       id="linearGradient3600-7"
       x1="140.40625"
       y1="614.58752"
       x2="140.40625"
       y2="215.31876"
       gradientUnits="userSpaceOnUse" />
    <linearGradient
       id="linearGradient3594-7">
      <stop
         style="stop-color:#ff0000;stop-opacity:1;"
         offset="0"
         id="stop3596-3" />
      <stop
         style="stop-color:#0000ff;stop-opacity:1;"
         offset="1"
         id="stop3598-4" />
    </linearGradient>
    <inkscape:perspective
       id="perspective5112"
       inkscape:persp3d-origin="0.5 : 0.33333333 : 1"
       inkscape:vp_z="1 : 0.5 : 1"
       inkscape:vp_y="0 : 1000 : 0"
       inkscape:vp_x="0 : 0.5 : 1"
       sodipodi:type="inkscape:persp3d" />
    <inkscape:perspective
       id="perspective5112-7"
       inkscape:persp3d-origin="0.5 : 0.33333333 : 1"
       inkscape:vp_z="1 : 0.5 : 1"
       inkscape:vp_y="0 : 1000 : 0"
       inkscape:vp_x="0 : 0.5 : 1"
       sodipodi:type="inkscape:persp3d" />
    <inkscape:perspective
       id="perspective5145"
       inkscape:persp3d-origin="0.5 : 0.33333333 : 1"
       inkscape:vp_z="1 : 0.5 : 1"
       inkscape:vp_y="0 : 1000 : 0"
       inkscape:vp_x="0 : 0.5 : 1"
       sodipodi:type="inkscape:persp3d" />
  </defs>
  <sodipodi:namedview
     id="base"
     pagecolor="#ffffff"
     bordercolor="#666666"
     borderopacity="1.0"
     inkscape:pageopacity="0.0"
     inkscape:pageshadow="2"
     inkscape:zoom="0.49497475"
     inkscape:cx="451.08844"
     inkscape:cy="217.37411"
     inkscape:document-units="px"
     inkscape:current-layer="layer1"
     showgrid="false"
     showborder="true"
     borderlayer="false"
     inkscape:window-width="1202"
     inkscape:window-height="830"
     inkscape:window-x="198"
     inkscape:window-y="130"
     inkscape:window-maximized="0" />
  <metadata
     id="metadata7">
    <rdf:RDF>
      <cc:Work
         rdf:about="">
        <dc:format>image/svg+xml</dc:format>
        <dc:type
           rdf:resource="http://purl.org/dc/dcmitype/StillImage" />
        <dc:title></dc:title>
      </cc:Work>
    </rdf:RDF>
  </metadata>
  <g
     inkscape:label="Layer 1"
     inkscape:groupmode="layer"
     id="layer1"
     transform="translate(-19.3624,-176.39788)">
    <path
       style="fill:none;stroke:#000000;stroke-width:9.5;stroke-linecap:butt;stroke-linejoin:miter;stroke-miterlimit:4;stroke-opacity:1;stroke-dasharray:none"
       d="m 38.33715,597.36218 45.71428,-195.71428 40,114.28571 104.28572,-147.14286 111.42857,94.28572 87.14286,-132.85714 16.631,13.06143"
       id="path5135-8" />
    <path
       style="fill:none;stroke:#00a600;stroke-width:9.5;stroke-linecap:butt;stroke-linejoin:miter;stroke-miterlimit:4;stroke-opacity:1;stroke-dasharray:none"
       d="M 35.050763,591.11203 80.765049,395.39775 120.76504,509.68346 225.05076,362.5406 l 111.42857,94.28572 87.14286,-132.85714 16.631,13.06143"
       id="path5135" />
    <path
       style="fill:url(#linearGradient3600);fill-opacity:1;fill-rule:nonzero;stroke:#000000;stroke-width:8.80000019;stroke-linecap:round;stroke-linejoin:miter;stroke-miterlimit:5.30000019;stroke-opacity:1;stroke-dasharray:none"
       d="m 151.34461,203.68304 c -18.1878,0 -32.8125,14.65595 -32.8125,32.84375 l 0,225.25 c 0,0.12626 -0.001,0.24908 0,0.375 -23.103782,11.91065 -38.906247,35.99731 -38.906247,63.78125 0,39.61032 32.108427,71.71875 71.718747,71.71875 39.61032,0 71.71875,-32.10843 71.71875,-71.71875 0,-27.76897 -15.79154,-51.83264 -38.875,-63.75 0.002,-0.13624 0,-0.26961 0,-0.40625 l 0,-225.25 c 0,-18.1878 -14.65595,-32.84375 -32.84375,-32.84375 z"
       id="path2816" />
    <path
       style="fill:#00ffff;fill-opacity:1;fill-rule:nonzero;stroke:#000000;stroke-width:4.63374329;stroke-linecap:round;stroke-linejoin:miter;stroke-miterlimit:5.30000019;stroke-opacity:1;stroke-dasharray:none"
       d="m 283.18881,466.91687 c 8.69566,40.02446 -9.31935,45.10288 -4.95298,65.72148 l 0.13164,0 c 1.23699,15.75687 14.41662,28.1546 30.49122,28.1546 16.89146,0 30.57349,-13.68203 30.57349,-30.57349 0,-1.84144 -0.16532,-3.64543 -0.4772,-5.39726 -2.25134,-22.68588 -37.07548,-41.48966 -55.76617,-57.90533 z"
       id="path5097" />
    <path
       style="fill:#00ffff;fill-opacity:1;fill-rule:nonzero;stroke:#000000;stroke-width:4.63374329;stroke-linecap:round;stroke-linejoin:miter;stroke-miterlimit:5.30000019;stroke-opacity:1;stroke-dasharray:none"
       d="m 327.06867,379.70986 c 8.69566,40.02447 -9.31935,45.10289 -4.95298,65.72149 l 0.13164,0 c 1.23699,15.75687 14.41662,28.1546 30.49122,28.1546 16.89146,0 30.57349,-13.68203 30.57349,-30.57349 0,-1.84144 -0.16532,-3.64543 -0.4772,-5.39726 -2.25134,-22.68588 -37.07548,-41.48966 -55.76617,-57.90534 z"
       id="path5097-9" />
    <path
       style="fill:#00ffff;fill-opacity:1;fill-rule:nonzero;stroke:#000000;stroke-width:4.63374329;stroke-linecap:round;stroke-linejoin:miter;stroke-miterlimit:5.30000019;stroke-opacity:1;stroke-dasharray:none"
       d="m 239.92581,303.99557 c 8.69566,40.02446 -9.31935,45.10288 -4.95298,65.72148 l 0.13164,0 c 1.23699,15.75687 14.41662,28.1546 30.49122,28.1546 16.89146,0 30.57349,-13.68203 30.57349,-30.57349 0,-1.84144 -0.16532,-3.64543 -0.4772,-5.39726 -2.25134,-22.68588 -37.07548,-41.48966 -55.76617,-57.90533 z"
       id="path5097-7" />
  </g>
</svg>
